<svg width="119" height="31" viewBox="0 0 119 31" fill="none" xmlns="http://www.w3.org/2000/svg">
<path d="M15.6654 22.2579C14.3334 22.2579 13.2294 21.9759 12.3534 21.4119C11.4774 20.8479 10.8654 20.0859 10.5174 19.1259L13.2714 17.5239C13.7394 18.6399 14.5674 19.1979 15.7554 19.1979C16.7394 19.1979 17.2314 18.9159 17.2314 18.3519C17.2314 17.9799 16.9494 17.6799 16.3854 17.4519C16.1454 17.3559 15.6174 17.1939 14.8014 16.9659C13.6494 16.6299 12.7374 16.1619 12.0654 15.5619C11.3934 14.9499 11.0574 14.1039 11.0574 13.0239C11.0574 11.8599 11.4714 10.9179 12.2994 10.1979C13.1394 9.47785 14.1834 9.11785 15.4314 9.11785C16.4874 9.11785 17.4234 9.36385 18.2394 9.85585C19.0554 10.3479 19.6794 11.0619 20.1114 11.9979L17.4114 13.5819C17.0154 12.6459 16.3614 12.1779 15.4494 12.1779C15.0654 12.1779 14.7714 12.2559 14.5674 12.4119C14.3754 12.5679 14.2794 12.7659 14.2794 13.0059C14.2794 13.2819 14.4234 13.5159 14.7114 13.7079C15.0114 13.8999 15.5874 14.1219 16.4394 14.3739C17.0514 14.5539 17.5434 14.7219 17.9154 14.8779C18.2874 15.0339 18.6954 15.2619 19.1394 15.5619C19.5834 15.8499 19.9134 16.2279 20.1294 16.6959C20.3454 17.1519 20.4534 17.6919 20.4534 18.3159C20.4534 19.5519 20.0154 20.5179 19.1394 21.2139C18.2634 21.9099 17.1054 22.2579 15.6654 22.2579ZM32.0648 21.9879H28.4648L24.8468 16.3539V21.9879H21.6248V9.38785H24.8468V14.6799L28.2848 9.38785H31.8848L27.8888 15.5079L32.0648 21.9879ZM32.9802 9.38785H36.2022V21.9879H32.9802V9.38785ZM45.1314 9.38785H48.3354V21.9879H45.8514L41.4054 15.6519V21.9879H38.1834V9.38785H40.6854L45.1314 15.7239V9.38785ZM63.048 9.38785V12.5019H59.934V21.9879H56.712V12.5019H53.598V9.38785H63.048ZM70.7866 21.9879L68.5906 17.9199H67.4386V21.9879H64.2166V9.38785H69.2566C70.5406 9.38785 71.6146 9.80185 72.4786 10.6299C73.3546 11.4459 73.7926 12.4839 73.7926 13.7439C73.7926 14.4999 73.6006 15.1959 73.2166 15.8319C72.8326 16.4559 72.3106 16.9539 71.6506 17.3259L74.2426 21.9879H70.7866ZM67.4386 12.3579V15.1839H69.2206C69.6166 15.1959 69.9406 15.0699 70.1926 14.8059C70.4446 14.5419 70.5706 14.1999 70.5706 13.7799C70.5706 13.3599 70.4446 13.0179 70.1926 12.7539C69.9406 12.4899 69.6166 12.3579 69.2206 12.3579H67.4386ZM83.2229 21.9879L82.6829 20.1699H78.4889L77.9489 21.9879H74.4569L78.6149 9.38785H82.5389L86.6969 21.9879H83.2229ZM79.3169 17.3979H81.8549L80.5769 13.1139L79.3169 17.3979ZM92.743 9.38785C94.483 9.38785 95.935 9.99385 97.099 11.2059C98.275 12.4059 98.863 13.8999 98.863 15.6879C98.863 17.4759 98.275 18.9759 97.099 20.1879C95.935 21.3879 94.483 21.9879 92.743 21.9879H87.613V9.38785H92.743ZM92.743 18.8739C93.619 18.8739 94.333 18.5859 94.885 18.0099C95.437 17.4219 95.713 16.6479 95.713 15.6879C95.713 14.7279 95.437 13.9599 94.885 13.3839C94.333 12.7959 93.619 12.5019 92.743 12.5019H90.925V18.8739H92.743ZM103.579 18.9639H108.457V21.9879H100.357V9.38785H108.367V12.3939H103.579V14.1399H107.917V17.1099H103.579V18.9639Z" fill="white"/>
<rect x="0.75" y="1.15656" width="117.5" height="29.08" rx="3.25" stroke="url(#paint0_linear_101:1740)" stroke-width="1.5"/>
<defs>
<linearGradient id="paint0_linear_101:1740" x1="119" y1="0.406557" x2="3.73403e-06" y2="30.9866" gradientUnits="userSpaceOnUse">
<stop stop-color="#7F00FF"/>
<stop offset="1" stop-color="#19D233"/>
</linearGradient>
</defs>
</svg>
